<svg width="45" height="33" viewBox="0 0 45 33" fill="none" xmlns="http://www.w3.org/2000/svg">
<path d="M2.75 33C2.75 33 0 33 0 30.25C0 27.5 2.75 19.25 16.5 19.25C30.25 19.25 33 27.5 33 30.25C33 33 30.25 33 30.25 33H2.75ZM16.5 16.5C18.688 16.5 20.7865 15.6308 22.3336 14.0836C23.8808 12.5365 24.75 10.438 24.75 8.25C24.75 6.06196 23.8808 3.96354 22.3336 2.41637C20.7865 0.869194 18.688 0 16.5 0C14.312 0 12.2135 0.869194 10.6664 2.41637C9.11919 3.96354 8.25 6.06196 8.25 8.25C8.25 10.438 9.11919 12.5365 10.6664 14.0836C12.2135 15.6308 14.312 16.5 16.5 16.5Z" fill="#7F8189"/>
<path d="M31 13.5H44M37.5 7V20" stroke="#7F8189" stroke-width="2" stroke-linecap="round" stroke-linejoin="round"/>
</svg>
