<svg width="46" height="33" viewBox="0 0 46 33" fill="none" xmlns="http://www.w3.org/2000/svg">
<path fill-rule="evenodd" clip-rule="evenodd" d="M45.5728 7.40378C45.7082 7.53145 45.8156 7.68311 45.889 7.85008C45.9623 8.01706 46 8.19606 46 8.37684C46 8.55762 45.9623 8.73663 45.889 8.9036C45.8156 9.07057 45.7082 9.22224 45.5728 9.34991L36.8479 17.5962C36.7129 17.7242 36.5524 17.8258 36.3757 17.895C36.1991 17.9643 36.0097 18 35.8184 18C35.6271 18 35.4377 17.9643 35.2611 17.895C35.0844 17.8258 34.9239 17.7242 34.7889 17.5962L30.4264 13.4731C30.1534 13.215 30 12.865 30 12.5C30 12.135 30.1534 11.785 30.4264 11.5269C30.6995 11.2689 31.0698 11.1239 31.456 11.1239C31.8421 11.1239 32.2125 11.2689 32.4855 11.5269L35.8184 14.6798L43.5137 7.40378C43.6488 7.27578 43.8093 7.17424 43.9859 7.10495C44.1626 7.03566 44.352 7 44.5433 7C44.7345 7 44.9239 7.03566 45.1006 7.10495C45.2772 7.17424 45.4377 7.27578 45.5728 7.40378Z" fill="#313338"/>
<path d="M2.75 33C2.75 33 0 33 0 30.25C0 27.5 2.75 19.25 16.5 19.25C30.25 19.25 33 27.5 33 30.25C33 33 30.25 33 30.25 33H2.75ZM16.5 16.5C18.688 16.5 20.7865 15.6308 22.3336 14.0836C23.8808 12.5365 24.75 10.438 24.75 8.25C24.75 6.06196 23.8808 3.96354 22.3336 2.41637C20.7865 0.869194 18.688 0 16.5 0C14.312 0 12.2135 0.869194 10.6664 2.41637C9.11919 3.96354 8.25 6.06196 8.25 8.25C8.25 10.438 9.11919 12.5365 10.6664 14.0836C12.2135 15.6308 14.312 16.5 16.5 16.5Z" fill="#313338"/>
</svg>
