<svg width="62" height="62" viewBox="0 0 62 62" fill="none" xmlns="http://www.w3.org/2000/svg">
<path d="M31 0C13.8793 0 0 13.8793 0 31C0 48.1217 13.8793 62 31 62C48.1217 62 62 48.1217 62 31C62 13.8793 48.1217 0 31 0ZM31 58.186C16.0435 58.186 3.875 45.9565 3.875 30.9999C3.875 16.0433 16.0435 3.87488 31 3.87488C45.9565 3.87488 58.125 16.0434 58.125 30.9999C58.125 45.9563 45.9565 58.186 31 58.186ZM44.5625 29.0625H32.9375V17.4375C32.9375 16.368 32.0695 15.5 31 15.5C29.9305 15.5 29.0625 16.368 29.0625 17.4375V29.0625H17.4375C16.368 29.0625 15.5 29.9305 15.5 31C15.5 32.0695 16.368 32.9375 17.4375 32.9375H29.0625V44.5625C29.0625 45.632 29.9305 46.5 31 46.5C32.0695 46.5 32.9375 45.632 32.9375 44.5625V32.9375H44.5625C45.632 32.9375 46.5 32.0695 46.5 31C46.5 29.9305 45.632 29.0625 44.5625 29.0625Z" fill="#949BA4"/>
</svg>
