<svg width="135" height="135" viewBox="0 0 135 135" fill="none" xmlns="http://www.w3.org/2000/svg">
<path d="M64.2233 31.4563H70.7767V77.3301H64.2233V31.4563ZM74.0534 93.7136C74.0534 92.4174 73.6691 91.1504 72.949 90.0727C72.2289 88.995 71.2054 88.155 70.0079 87.659C68.8104 87.163 67.4927 87.0332 66.2215 87.2861C64.9503 87.539 63.7826 88.1631 62.8661 89.0796C61.9496 89.9961 61.3254 91.1638 61.0725 92.4351C60.8197 93.7063 60.9495 95.024 61.4455 96.2214C61.9415 97.4189 62.7814 98.4424 63.8591 99.1625C64.9368 99.8826 66.2039 100.267 67.5 100.267C69.237 100.263 70.9019 99.5719 72.1301 98.3437C73.3584 97.1154 74.0499 95.4506 74.0534 93.7136ZM135 67.5C135 80.8502 131.041 93.9007 123.624 105.001C116.207 116.101 105.665 124.753 93.3311 129.862C80.9971 134.971 67.4251 136.307 54.3314 133.703C41.2377 131.098 29.2104 124.67 19.7703 115.23C10.3303 105.79 3.90153 93.7623 1.29702 80.6686C-1.30748 67.5749 0.0292463 54.0029 5.13816 41.6689C10.2471 29.3349 18.8987 18.7928 29.999 11.3758C41.0993 3.95881 54.1498 2.86507e-06 67.5 2.86507e-06C76.365 -0.00258029 85.1436 1.74159 93.3342 5.13287C101.525 8.52415 108.967 13.4961 115.235 19.7645C121.504 26.033 126.476 33.4752 129.867 41.6658C133.258 49.8564 135.003 58.635 135 67.5ZM128.447 67.5C128.447 55.4459 124.872 43.6625 118.175 33.6399C111.478 23.6173 101.96 15.8056 90.8233 11.1927C79.6867 6.57978 67.4324 5.37283 55.6099 7.72447C43.7875 10.0761 32.9278 15.8807 24.4043 24.4042C15.8807 32.9278 10.0761 43.7874 7.7245 55.6099C5.37286 67.4324 6.57981 79.6867 11.1927 90.8232C15.8056 101.96 23.6173 111.478 33.6399 118.175C43.6625 124.872 55.4459 128.447 67.5 128.447C83.6587 128.429 99.1507 122.003 110.577 110.577C122.003 99.1506 128.429 83.6587 128.447 67.5Z" fill="#7F8189"/>
</svg>
