<svg width="33" height="33" viewBox="0 0 33 33" fill="none" xmlns="http://www.w3.org/2000/svg">
<path fill-rule="evenodd" clip-rule="evenodd" d="M19.7733 0.893656C19.9173 1.17303 19.9531 1.53082 20.0246 2.24638C20.16 3.60079 20.2278 4.27802 20.5113 4.64958C20.8708 5.12091 21.4556 5.36313 22.0432 5.28409C22.5063 5.22179 23.033 4.79081 24.0865 3.92886C24.6431 3.4735 24.9213 3.24581 25.2207 3.15015C25.6011 3.02866 26.0126 3.04917 26.3789 3.20791C26.6673 3.3329 26.9216 3.58713 27.4301 4.09563L28.9044 5.56986C29.4127 6.07835 29.667 6.3326 29.7921 6.62104C29.9508 6.98739 29.9713 7.39885 29.8498 7.77916C29.7541 8.0786 29.5264 8.35689 29.071 8.91346C28.2091 9.96699 27.7781 10.4937 27.7159 10.9569C27.6368 11.5444 27.8791 12.1292 28.3503 12.4887C28.7219 12.7722 29.399 12.8399 30.7535 12.9754C31.4691 13.0469 31.827 13.0827 32.1064 13.2267C32.4611 13.4099 32.7376 13.7153 32.8843 14.0865C33 14.3789 33 14.7385 33 15.4575V17.5426C33 18.2615 33 18.6211 32.8845 18.9133C32.7377 19.2847 32.4611 19.5903 32.1062 19.7733C31.8268 19.9173 31.4691 19.9531 30.7537 20.0246C29.3997 20.16 28.7227 20.2277 28.3511 20.511C27.8796 20.8707 27.6373 21.4556 27.7165 22.0433C27.7789 22.5063 28.2097 23.0328 29.0713 24.086C29.5266 24.6424 29.7541 24.9206 29.8498 25.2199C29.9714 25.6004 29.9508 26.0119 29.7921 26.3784C29.667 26.6668 29.4129 26.9209 28.9045 27.4293L27.4301 28.9037C26.9217 29.4121 26.6675 29.6663 26.379 29.7914C26.0126 29.9501 25.6012 29.9706 25.2209 29.8492C24.9214 29.7535 24.6431 29.5258 24.0865 29.0704C23.033 28.2084 22.5063 27.7774 22.0432 27.7152C21.4556 27.6362 20.8708 27.8784 20.5113 28.3496C20.2278 28.7212 20.1602 29.3985 20.0247 30.7532C19.9531 31.4691 19.9173 31.827 19.7731 32.1065C19.5901 32.4613 19.2847 32.7375 18.9136 32.8843C18.6212 33 18.2615 33 17.5421 33H15.4575C14.7385 33 14.3789 33 14.0865 32.8843C13.7153 32.7376 13.4099 32.4611 13.2267 32.1064C13.0827 31.827 13.0469 31.4691 12.9754 30.7535C12.8399 29.399 12.7722 28.7219 12.4887 28.3503C12.1292 27.8791 11.5444 27.6368 10.9569 27.7159C10.4938 27.7781 9.96697 28.2091 8.91343 29.0712C8.35684 29.5266 8.07852 29.7543 7.77906 29.8498C7.39877 29.9714 6.98732 29.9508 6.62099 29.7921C6.33254 29.6672 6.07827 29.4129 5.56976 28.9044L4.09558 27.4301C3.58707 26.9217 3.3328 26.6675 3.20783 26.379C3.0491 26.0126 3.02858 25.6012 3.15006 25.2209C3.24573 24.9214 3.47343 24.6431 3.92882 24.0865C4.79079 23.033 5.22177 22.5063 5.28408 22.043C5.36311 21.4556 5.12089 20.8708 4.64957 20.5113C4.278 20.2278 3.60079 20.16 2.24636 20.0246C1.5308 19.9531 1.17303 19.9173 0.893656 19.7733C0.538824 19.5901 0.262383 19.2847 0.115583 18.9135C0 18.6211 0 18.2615 0 17.5425V15.4577C0 14.7385 7.37607e-08 14.3788 0.115632 14.0864C0.262433 13.7153 0.538791 13.4099 0.893508 13.2269C1.17295 13.0827 1.53082 13.0469 2.24656 12.9753C3.60134 12.8399 4.27876 12.7721 4.65039 12.4885C5.12152 12.129 5.36365 11.5445 5.28474 10.9571C5.22248 10.4938 4.79135 9.96686 3.92911 8.913C3.47351 8.35618 3.24573 8.07776 3.15008 7.77818C3.02869 7.39801 3.0492 6.98673 3.20781 6.62051C3.3328 6.33194 3.58715 6.07759 4.09584 5.5689L5.56982 4.09492C6.07834 3.58639 6.33262 3.33213 6.62107 3.20715C6.98739 3.04842 7.39883 3.02792 7.77914 3.14939C8.0786 3.24505 8.35694 3.47279 8.91363 3.92825C9.96701 4.79012 10.4937 5.22105 10.9567 5.28342C11.5444 5.36255 12.1294 5.12026 12.489 4.64874C12.7723 4.27725 12.84 3.60022 12.9754 2.24616C13.0469 1.5308 13.0827 1.17312 13.2267 0.893805C13.4097 0.538857 13.7153 0.262317 14.0867 0.115516C14.3789 -8.60542e-08 14.7385 0 15.4574 0H17.5425C18.2615 0 18.6211 0 18.9135 0.115583C19.2847 0.262383 19.5901 0.538824 19.7733 0.893656ZM16.5 23.1C20.145 23.1 23.1 20.145 23.1 16.5C23.1 12.8549 20.145 9.9 16.5 9.9C12.8549 9.9 9.9 12.8549 9.9 16.5C9.9 20.145 12.8549 23.1 16.5 23.1Z" fill="#878F9A"/>
</svg>
